<mxfile host="app.diagrams.net" modified="2025-03-06T22:54:33.949Z" agent="Mozilla/5.0 (Macintosh; Intel Mac OS X 10_15_7) AppleWebKit/537.36 (KHTML, like Gecko) Chrome/133.0.0.0 Safari/537.36" version="23.1.2" etag="EZrntFknWAVcPZfb0vA3" type="github">
  <diagram name="PÃ¡gina-1" id="VZrhigLKn-FKws_lCcoH">
    <mxGraphModel>
      <root>
        <mxCell id="0" />
        <mxCell id="1" parent="0" />
      </root>
    </mxGraphModel>
  </diagram>
</mxfile>
